HIERARCHY
ROOT hips
{
  OFFSET 0 10.6860622 2.3727825e-15
  CHANNELS 6 Xposition Yposition Zposition Yrotation Xrotation Zrotation
  JOINT leftUpperLeg
  {
    OFFSET 0.6642549969 -0.9402397400000004 0
    CHANNELS 3 Yrotation Xrotation Zrotation
    JOINT leftLowerLeg
    {
      OFFSET 0 -3.997221335632195 0
      CHANNELS 3 Yrotation Xrotation Zrotation
      JOINT leftFoot
      {
        OFFSET -0.13777839790000004 -4.6145792000000005 -0.22186036399999998
        CHANNELS 3 Yrotation Xrotation Zrotation
        JOINT leftToes
        {
          OFFSET -0.03777410834999995 -0.9130806927000008 0.85230013
          CHANNELS 3 Yrotation Xrotation Zrotation
          End Site
          {
            OFFSET -0.03777410834999995 -0.9130806927000008 0.85230013
          }
        }
      }
    }
  }
  JOINT rightUpperLeg
  {
    OFFSET -0.6642778626 -0.9402397400000004 0
    CHANNELS 3 Yrotation Xrotation Zrotation
    JOINT rightLowerLeg
    {
      OFFSET 0 -3.997221452859387 0
      CHANNELS 3 Yrotation Xrotation Zrotation
      JOINT rightFoot
      {
        OFFSET 0.1377926176 -4.6145792000000005 -0.22185782299999995
        CHANNELS 3 Yrotation Xrotation Zrotation
        JOINT rightToes
        {
          OFFSET 0.037780746850000047 -0.9130806927000008 0.85230167
          CHANNELS 3 Yrotation Xrotation Zrotation
          End Site
          {
            OFFSET 0.037780746850000047 -0.9130806927000008 0.85230167
          }
        }
      }
    }
  }
  JOINT spine
  {
    OFFSET 0 0.13988381660000015 0
    CHANNELS 3 Yrotation Xrotation Zrotation
    JOINT chest
    {
      OFFSET 0 0.6191039003973773 0
      CHANNELS 3 Yrotation Xrotation Zrotation
      JOINT upperChest
      {
        OFFSET 0 0.9855186130586943 0
        CHANNELS 3 Yrotation Xrotation Zrotation
        JOINT leftShoulder
        {
          OFFSET 0.1807663869 1.5087829790000005 0
          CHANNELS 3 Yrotation Xrotation Zrotation
          JOINT leftUpperArm
          {
            OFFSET 0.5985063006419806 0 0
            CHANNELS 3 Yrotation Xrotation Zrotation
            JOINT leftLowerArm
            {
              OFFSET 2.2993332369501065 0 0
              CHANNELS 3 Yrotation Xrotation Zrotation
              JOINT leftHand
              {
                OFFSET 2.395047042602395 0 0
                CHANNELS 3 Yrotation Xrotation Zrotation
                JOINT leftIndexProximal
                {
                  OFFSET 0.5766295810000004 0.04556643899499946 0.17265095988184
                  CHANNELS 3 Yrotation Xrotation Zrotation
                  JOINT leftIndexIntermediate
                  {
                    OFFSET 0.2957229000000008 -0.019352197700001517 -0.007932640616999987
                    CHANNELS 3 Yrotation Xrotation Zrotation
                    JOINT leftIndexDistal
                    {
                      OFFSET 0.19008243099999922 -0.012484908149998475 -0.002786250786000012
                      CHANNELS 3 Yrotation Xrotation Zrotation
                      End Site
                      {
                        OFFSET 0.19008243099999922 -0.012484908149998475 -0.002786250786000012
                      }
                    }
                  }
                }
                JOINT leftMiddleProximal
                {
                  OFFSET 0.5834975091000001 0.0524350405149987 0.02204081888183999
                  CHANNELS 3 Yrotation Xrotation Zrotation
                  JOINT leftMiddleIntermediate
                  {
                    OFFSET 0.33880573540000003 -0.019871473270000717 -0.00000971183179999946
                    CHANNELS 3 Yrotation Xrotation Zrotation
                    JOINT leftMiddleDistal
                    {
                      OFFSET 0.20676022730000088 -0.012221336379999448 0.0001471936708000235
                      CHANNELS 3 Yrotation Xrotation Zrotation
                      End Site
                      {
                        OFFSET 0.20676022730000088 -0.012221336379999448 0.0001471936708000235
                      }
                    }
                  }
                }
                JOINT leftLittleProximal
                {
                  OFFSET 0.5344154683999995 -0.012880921405001189 -0.24414037221816004
                  CHANNELS 3 Yrotation Xrotation Zrotation
                  JOINT leftLittleIntermediate
                  {
                    OFFSET 0.21758961730000093 -0.011650919939999227 0.011893592810000034
                    CHANNELS 3 Yrotation Xrotation Zrotation
                    JOINT leftLittleDistal
                    {
                      OFFSET 0.1475273964999999 -0.008152365682999818 0.006001092492999946
                      CHANNELS 3 Yrotation Xrotation Zrotation
                      End Site
                      {
                        OFFSET 0.1475273964999999 -0.008152365682999818 0.006001092492999946
                      }
                    }
                  }
                }
                JOINT leftRingProximal
                {
                  OFFSET 0.5799399463000003 0.026911854694997794 -0.12150566991816003
                  CHANNELS 3 Yrotation Xrotation Zrotation
                  JOINT leftRingIntermediate
                  {
                    OFFSET 0.26167887460000006 -0.013480186499999602 0.010996293000000053
                    CHANNELS 3 Yrotation Xrotation Zrotation
                    JOINT leftRingDistal
                    {
                      OFFSET 0.17667108799999987 -0.008990287899999228 0.0055541023999999065
                      CHANNELS 3 Yrotation Xrotation Zrotation
                      End Site
                      {
                        OFFSET 0.17667108799999987 -0.008990287899999228 0.0055541023999999065
                      }
                    }
                  }
                }
                JOINT leftThumbProximal
                {
                  OFFSET 0.11018806699999972 -0.09448718900500053 0.17047963138184
                  CHANNELS 3 Yrotation Xrotation Zrotation
                  JOINT leftThumbIntermediate
                  {
                    OFFSET 0.31062601459999983 -0.08126270900000132 0.15443142000000007
                    CHANNELS 3 Yrotation Xrotation Zrotation
                    JOINT leftThumbDistal
                    {
                      OFFSET 0.21627175790000086 -0.08833193599999878 0.018771167799999988
                      CHANNELS 3 Yrotation Xrotation Zrotation
                      End Site
                      {
                        OFFSET 0.21627175790000086 -0.08833193599999878 0.018771167799999988
                      }
                    }
                  }
                }
              }
            }
          }
        }
        JOINT neck
        {
          OFFSET 0 1.5463305265074576 0
          CHANNELS 3 Yrotation Xrotation Zrotation
          JOINT head
          {
            OFFSET 0 0.8456443600000344 0
            CHANNELS 3 Yrotation Xrotation Zrotation
            JOINT leftEye
            {
              OFFSET 0.30408573140000006 0.5104519199999995 0.1276382305
              CHANNELS 3 Yrotation Xrotation Zrotation
              End Site
              {
                OFFSET 0.30408573140000006 0.5104519199999995 0.1276382305
              }
            }
            JOINT rightEye
            {
              OFFSET -0.30409491089999996 0.5104519199999995 0.1276379445
              CHANNELS 3 Yrotation Xrotation Zrotation
              End Site
              {
                OFFSET -0.30409491089999996 0.5104519199999995 0.1276379445
              }
            }
            JOINT jaw
            {
              OFFSET -3.155239131000001e-7 -0.11984121820000082 0.60178107
              CHANNELS 3 Yrotation Xrotation Zrotation
              End Site
              {
                OFFSET -3.155239131000001e-7 -0.11984121820000082 0.60178107
              }
            }
          }
        }
        JOINT rightShoulder
        {
          OFFSET -0.1807303465 1.5087829790000005 0
          CHANNELS 3 Yrotation Xrotation Zrotation
          JOINT rightUpperArm
          {
            OFFSET -0.5985063796536958 0 0
            CHANNELS 3 Yrotation Xrotation Zrotation
            JOINT rightLowerArm
            {
              OFFSET -2.2993322059002854 0 0
              CHANNELS 3 Yrotation Xrotation Zrotation
              JOINT rightHand
              {
                OFFSET -2.395045314457259 0 0
                CHANNELS 3 Yrotation Xrotation Zrotation
                JOINT rightIndexProximal
                {
                  OFFSET -0.5764487688300002 0.0441371204405987 0.17361932004999997
                  CHANNELS 3 Yrotation Xrotation Zrotation
                  JOINT rightIndexIntermediate
                  {
                    OFFSET -0.29573011380000047 -0.01934826376999843 -0.007698921482999974
                    CHANNELS 3 Yrotation Xrotation Zrotation
                    JOINT rightIndexDistal
                    {
                      OFFSET -0.19008373999999884 -0.012503266380000655 -0.0026365778999999897
                      CHANNELS 3 Yrotation Xrotation Zrotation
                      End Site
                      {
                        OFFSET -0.19008373999999884 -0.012503266380000655 -0.0026365778999999897
                      }
                    }
                  }
                }
                JOINT rightMiddleProximal
                {
                  OFFSET -0.5834852037300005 0.05211639405060153 0.02307162440000001
                  CHANNELS 3 Yrotation Xrotation Zrotation
                  JOINT rightMiddleIntermediate
                  {
                    OFFSET -0.33880114510000003 -0.019952774050000954 0.0002455003561999819
                    CHANNELS 3 Yrotation Xrotation Zrotation
                    JOINT rightMiddleDistal
                    {
                      OFFSET -0.20675694929999955 -0.012273788999999091 0.00030209124000002766
                      CHANNELS 3 Yrotation Xrotation Zrotation
                      End Site
                      {
                        OFFSET -0.20675694929999955 -0.012273788999999091 0.00030209124000002766
                      }
                    }
                  }
                }
                JOINT rightLittleProximal
                {
                  OFFSET -0.5346811737299992 -0.011214256288399227 -0.24363941305000003
                  CHANNELS 3 Yrotation Xrotation Zrotation
                  JOINT rightLittleIntermediate
                  {
                    OFFSET -0.21757715980000092 -0.011771559690000988 0.01201554387
                    CHANNELS 3 Yrotation Xrotation Zrotation
                    JOINT rightLittleDistal
                    {
                      OFFSET -0.1475201849000004 -0.00822055339600003 0.006082065407000015
                      CHANNELS 3 Yrotation Xrotation Zrotation
                      End Site
                      {
                        OFFSET -0.1475201849000004 -0.00822055339600003 0.006082065407000015
                      }
                    }
                  }
                }
                JOINT rightRingProximal
                {
                  OFFSET -0.5800810755299999 0.027657985680600072 -0.12066365025000003
                  CHANNELS 3 Yrotation Xrotation Zrotation
                  JOINT rightRingIntermediate
                  {
                    OFFSET -0.26166445029999974 -0.013623118409999302 0.011164098990000045
                    CHANNELS 3 Yrotation Xrotation Zrotation
                    JOINT rightRingDistal
                    {
                      OFFSET -0.17666387530000027 -0.009072900100000503 0.005668185599999959
                      CHANNELS 3 Yrotation Xrotation Zrotation
                      End Site
                      {
                        OFFSET -0.17666387530000027 -0.009072900100000503 0.005668185599999959
                      }
                    }
                  }
                }
                JOINT rightThumbProximal
                {
                  OFFSET -0.10997596379000074 -0.09577489355940072 0.16989765924999997
                  CHANNELS 3 Yrotation Xrotation Zrotation
                  JOINT rightThumbIntermediate
                  {
                    OFFSET -0.31036620999999986 -0.08229339117999834 0.15440884469999996
                    CHANNELS 3 Yrotation Xrotation Zrotation
                    JOINT rightThumbDistal
                    {
                      OFFSET -0.21631306399999906 -0.08825326400000111 0.018656797720000014
                      CHANNELS 3 Yrotation Xrotation Zrotation
                      End Site
                      {
                        OFFSET -0.21631306399999906 -0.08825326400000111 0.018656797720000014
                      }
                    }
                  }
                }
              }
            }
          }
        }
      }
    }
  }
}
MOTION
Frames: 9
Frame Time: 0.03333333333333333
0 11.682712981546562 0 0 0 0 0 0 -5.826343164929014 -0.3712483961610101 -3.6333298826370974 5.838118207697276 0 0 0 0 0 0 0 0 5.826343164929014 0.3712483961610101 -3.6333298826370974 -5.838118207697276 0 0 0 0 0 0 0 -4.610651315171937 0 0 3.0831277533083026 0 0 0 0 0 1.5275236235667615 0 0 0 0 0 0 0 0 0 0 0 0 0 0 0 0 0 0 0 0 0 0 0 0 0 0 0 0 0 0 0 0 0 0 0 0 0 0 0 0 0 0 0 0 0 0 0 0 0 0 0 0 0 0 0 0 1.5275236235667615 0 0 0 0 0 0 0 0 0 0 0 0 0 0 1.5275236235667615 0 0 0 0 0 0 0 0 0 0 0 0 0 0 0 0 0 0 0 0 0 0 0 0 0 0 0 0 0 0 0 0 0 0 0 0 0 0 0 0 0 0 0 0 0 0 0 0 0 0 0 0 0 0 0
0 -1.3825986303288362 -1.4986863394368541 180 18.997673065841536 -2.4157280272597807e-15 10.856192522594682 -61.82677028865592 8.515300179363694 10.782971626957032 34.46118576461575 -0.7616936014271509 0.09899233851342684 1.244309187168099 -17.30112674718911 0 0 0 -10.88846685079126 -61.83965539547507 -8.508427468933938 -10.780881189139397 34.47978113987903 0.7610247567279599 -0.1024223498891122 1.22354700067411 17.276308293943075 0 0 0 -0.6202352673125566 -15.464949532989005 -2.527933176214444 -0.15266607839108964 25.4268301327752 -3.183599595465659 0 0 0 -31.65389568491558 15.087820229257115 -37.064248939546545 25.63043057231996 13.898010485347461 -33.0698543975245 -57.33845914627018 -28.073255334882628 7.552854689371413 -5.019634819873516 -1.3420487002178156 -16.191606948738226 0 0 0 0 0 0 0 0 0 0 0 0 0 0 0 0 0 0 0 0 0 0 0 0 0 0 0 0 0 0 0 0 0 0 0 0 0 0 0 0 0 0 0 0 0 0 17.524511869088904 0 0 10.999558234540155 0 0 0 0 0 0 0 0 0 0 32.22353094640163 14.217430262900956 40.30708218754846 -25.083357990527528 13.278384610247029 33.26253234810965 55.57553016163948 -28.22462973590681 -5.062154000546902 5.016206519031727 -1.3413974125228818 16.188121657506095 0 0 0 0 0 0 0 0 0 0 0 0 0 0 0 0 0 0 0 0 0 0 0 0 0 0 0 0 0 0 0 0 0 0 0 0 0 0 0 0 0 0 0 0 0
0 -1.3825986303288362 -1.5027620102727726 -179.99620727123227 18.720074765317598 0.0006245514991201112 10.871348585688951 -61.546172638294394 8.562876800328912 10.782970609748281 34.46118576461575 -0.7616939897025412 0.09899233851342684 1.244309187168099 -17.30112674718911 0 0 0 -10.903302577796763 -61.55861840960432 -8.556301654777519 -10.780881189139397 34.47978113987903 0.7610243036389717 -0.1024223498891122 1.22354700067411 17.276308293943075 0 0 0 -0.6201015774287388 -15.615596689557103 -2.5272939052727916 -0.15266607839108964 25.4268301327752 -3.183599595465659 0 0 0 -31.701036380490105 15.064486001100349 -36.75927871424955 25.776329380142904 14.018242514670861 -33.33709202931676 -57.44380218011349 -28.05904004551483 7.424524607386447 -5.019634819873516 -1.3420487002178156 -16.191606948738226 0 0 0 0 0 0 0 0 0 0 0 0 0 0 0 0 0 0 0 0 0 0 0 0 0 0 0 0 0 0 0 0 0 0 0 0 0 0 0 0 0 0 0 0 0 0 17.085352688852794 0 0 10.649248865149682 0 0 0 0 0 0 0 0 0 0 32.268755435768725 14.182180971748688 39.97808983106002 -25.241411168520397 13.406714654719494 33.5099996948304 55.73222957248387 -28.208892627821644 -4.938991235799208 5.016206519031727 -1.3413974125228818 16.188121657506095 0 0 0 0 0 0 0 0 0 0 0 0 0 0 0 0 0 0 0 0 0 0 0 0 0 0 0 0 0 0 0 0 0 0 0 0 0 0 0 0 0 0 0 0 0
0 -1.3825986303288362 -1.5068376811086908 -179.99242390495894 18.442477895062876 0.0012287160920002556 10.886854948871413 -61.265580510821266 8.610181735499078 10.782970609748281 34.46118576461575 -0.7616943779779315 0.09899233851342684 1.244309187168099 -17.30112674718911 0 0 0 -10.918494400497321 -61.27758091157041 -8.603899048529774 -10.780881189139397 34.47978113987903 0.7610237858229852 -0.1024223498891122 1.22354700067411 17.276308293943075 0 0 0 -0.6199639699835274 -15.766244629207295 -2.5266624216767264 -0.15266607839108964 25.426828242084955 -3.183599595465659 0 0 0 -31.748294396764052 15.04139656356934 -36.45432290051387 25.92172651621199 14.139133629437621 -33.60415687238724 -57.5491666644189 -28.045033651320573 7.296181830969734 -5.019634819873516 -1.3420487002178156 -16.191606948738226 0 0 0 0 0 0 0 0 0 0 0 0 0 0 0 0 0 0 0 0 0 0 0 0 0 0 0 0 0 0 0 0 0 0 0 0 0 0 0 0 0 0 0 0 0 0 16.64619199659108 0 0 10.298940003733883 0 0 0 0 0 0 0 0 0 0 32.314177790256636 14.147184574024669 39.64911333517166 -25.398975319276705 13.535706886368553 33.757236310154916 55.88894339900347 -28.193452323242187 -4.815798807182206 5.016206519031727 -1.3413974125228818 16.188121657506095 0 0 0 0 0 0 0 0 0 0 0 0 0 0 0 0 0 0 0 0 0 0 0 0 0 0 0 0 0 0 0 0 0 0 0 0 0 0 0 0 0 0 0 0 0
0 -1.3825986303288362 -1.5149892911727991 -179.98486437529237 17.88737907416071 0.0023808617529245788 10.918894645604256 -60.70419741413166 8.704059594584715 10.782971626957032 34.46118576461575 -0.7616926954512397 0.09899233851342684 1.244309187168099 -17.30112674718911 0 0 0 -10.949915538766854 -60.71529639616586 -8.69833679487809 -10.780881189139397 34.47978113987903 0.7610237858229852 -0.1024223498891122 1.22354700067411 17.276308293943075 0 0 0 -0.6196992095141088 -16.06757369205402 -2.525390265794842 -0.15266607839108964 25.4268301327752 -3.183599595465659 0 0 0 -31.84321105347321 14.995923444197071 -35.84413030633031 26.211175411466197 14.383027287808714 -34.138088047127376 -57.759993994940444 -28.017633680322106 7.03940654766406 -5.019634819873516 -1.3420487002178156 -16.191606948738226 0 0 0 0 0 0 0 0 0 0 0 0 0 0 0 0 0 0 0 0 0 0 0 0 0 0 0 0 0 0 0 0 0 0 0 0 0 0 0 0 0 0 0 0 0 0 15.76528828399356 0 0 9.59686273634099 0 0 0 0 0 0 0 0 0 0 32.40567773787722 14.077914732009122 38.9908473110427 -25.712828642794076 13.795825508442812 34.25130962626711 56.20250373047311 -28.163453860774148 -4.569254308335591 5.016206519031727 -1.3413974125228818 16.188121657506095 0 0 0 0 0 0 0 0 0 0 0 0 0 0 0 0 0 0 0 0 0 0 0 0 0 0 0 0 0 0 0 0 0 0 0 0 0 0 0 0 0 0 0 0 0
0 -1.3825986303288362 -1.5190650962048533 -179.98109483748482 17.609734849717853 0.0029281510036880194 10.935409244743715 -60.42341741350339 8.750645677536447 10.782971626957032 34.46118576461575 -0.7616931484391953 0.09899233851342684 1.244309187168099 -17.30112674718911 0 0 0 -10.96613564785891 -60.434067404776364 -8.745192195193333 -10.780881189139397 34.47978113987903 0.7610243036389717 -0.1024223498891122 1.22354700067411 17.27630992482396 0 0 0 -0.6195720666545117 -16.218253395234463 -2.524749683705665 -0.1526660636201244 25.4268301327752 -3.183600067408739 0 0 0 -31.890876044640745 14.973544907639019 -35.53892625933655 26.35522003065456 14.506021759971642 -34.40494177907056 -57.865466930242796 -28.004245747940328 6.910979883069131 -5.019635245239813 -1.3420489137197928 -16.19160858900485 0 0 0 0 0 0 0 0 0 0 0 0 0 0 0 0 0 0 0 0 0 0 0 0 0 0 0 0 0 0 0 0 0 0 0 0 0 0 0 0 0 0 0 0 0 0 15.32359698659061 0 0 9.245119601679331 0 0 0 0 0 0 0 0 0 0 32.4517466627165 14.04364456304185 38.6615851444971 -25.869094969929627 13.926932728755288 34.49812713923207 56.359339633730634 -28.14889545346938 -4.445906460918404 5.016206519031727 -1.3413974125228818 16.188121657506095 0 0 0 0 0 0 0 0 0 0 0 0 0 0 0 0 0 0 0 0 0 0 0 0 0 0 0 0 0 0 0 0 0 0 0 0 0 0 0 0 0 0 0 0 0
0 -1.3825986303288362 -1.5231409012369075 -179.97733382227327 17.3320894988955 0.003455471489593329 10.952241829298726 -60.142647071077214 8.796995490900176 10.782971626957032 34.46118576461575 -0.7616936014271509 0.09899233851342684 1.244309187168099 -17.30112674718911 0 0 0 -10.982679153873853 -60.15284916312499 -8.791805853558973 -10.780881189139397 34.47978113987903 0.7610247567279599 -0.1024223498891122 1.22354700067411 17.276311555704822 0 0 0 -0.6194409205339237 -16.36893277041423 -2.5241172364237903 -0.15266604884915913 25.4268301327752 -3.1836005393518176 0 0 0 -31.938656049076563 14.951412607134788 -35.233730610936426 26.49874826622407 14.629663423568783 -34.67162430095586 -57.97095825393001 -27.991068324497984 6.782541660898588 -5.01963567060611 -1.3420491272217703 -16.19161022927145 0 0 0 0 0 0 0 0 0 0 0 0 0 0 0 0 0 0 0 0 0 0 0 0 0 0 0 0 0 0 0 0 0 0 0 0 0 0 0 0 0 0 0 0 0 0 14.881903874918672 0 0 8.893375895564164 0 0 0 0 0 0 0 0 0 0 32.498013191625105 14.00963206543965 38.332341469554066 -26.02486865096522 14.058692633873731 34.74471982531664 56.51618701762922 -28.13463334864197 -4.322530896856501 5.016206519031727 -1.3413974125228818 16.188121657506095 0 0 0 0 0 0 0 0 0 0 0 0 0 0 0 0 0 0 0 0 0 0 0 0 0 0 0 0 0 0 0 0 0 0 0 0 0 0 0 0 0 0 0 0 0
0 -1.3825986303288362 -1.5312925113010156 -179.9698465869022 16.7766517390529 0.0044465310624416 10.986837185733966 -59.58093930348311 8.889049835377325 10.782971626957032 34.46118576461575 -0.7616936014271509 0.09899233851342684 1.244309187168099 -17.30112674718911 0 0 0 -11.016717744150348 -59.590255333889296 -8.884366855772805 -10.780881189139397 34.47978113987903 0.7610247567279599 -0.1024223498891122 1.22354700067411 17.276308293943075 0 0 0 -0.6191891455147033 -16.670314316578636 -2.522843891010169 -0.15266604884915913 25.4268301327752 -3.1836005393518176 0 0 0 -32.03461090067143 14.907865192897766 -34.623148857583814 26.784379497835555 14.878985122894216 -35.204720822886046 -58.18202706512035 -27.965336960971644 6.5255903056668565 -5.019634819873516 -1.3420488069688044 -16.19161022927145 0 0 0 0 0 0 0 0 0 0 0 0 0 0 0 0 0 0 0 0 0 0 0 0 0 0 0 0 0 0 0 0 0 0 0 0 0 0 0 0 0 0 0 0 0 0 13.99612878567048 0 0 8.188525342487768 0 0 0 0 0 0 0 0 0 0 32.59115771873397 13.942355827771053 37.673616325874995 -26.33506474092337 14.32427562042762 35.23743658877683 56.83002128015204 -28.107009187244902 -4.075649148143831 5.016206519031727 -1.3413974125228818 16.188121657506095 0 0 0 0 0 0 0 0 0 0 0 0 0 0 0 0 0 0 0 0 0 0 0 0 0 0 0 0 0 0 0 0 0 0 0 0 0 0 0 0 0 0 0 0 0
0 -1.3825986303288362 -1.535368182136934 -179.96611174180842 16.49886278240088 0.004913355717098903 11.004593171953816 -59.30003151476525 8.934762168204221 10.782971626957032 34.46118576461575 -0.7616936014271509 0.09899233851342684 1.244309187168099 -17.30112674718911 0 0 0 -11.034198824090858 -59.30890248322969 -8.930332035707673 -10.780881189139397 34.47978113987903 0.7610247567279599 -0.1024223498891122 1.22354700067411 17.276308293943075 0 0 0 -0.6190680818554565 -16.82101504342435 -2.522202730312725 -0.1526660636201244 25.4268301327752 -3.183600067408739 0 0 0 -32.082760629415176 14.886456994957397 -34.31777151288305 26.926473545558885 15.004656304256049 -35.47112125896794 -58.28759788605088 -27.95277900473934 6.397081116657204 -5.019634819873516 -1.3420487002178156 -16.19160858900485 0 0 0 0 0 0 0 0 0 0 0 0 0 0 0 0 0 0 0 0 0 0 0 0 0 0 0 0 0 0 0 0 0 0 0 0 0 0 0 0 0 0 0 0 0 0 13.55209401616577 0 0 7.835442651001874 0 0 0 0 0 0 0 0 0 0 32.638035181712446 13.909096243588483 37.344162522410066 -26.48947202909467 14.458089326049155 35.48355133057036 56.98697823628142 -28.09363915481463 -3.952145298318316 5.016206519031727 -1.3413974125228818 16.188121657506095 0 0 0 0 0 0 0 0 0 0 0 0 0 0 0 0 0 0 0 0 0 0 0 0 0 0 0 0 0 0 0 0 0 0 0 0 0 0 0 0 0 0 0 0 0
